<svg width="1440" height="600" viewBox="0 0 1440 600" fill="none" xmlns="http://www.w3.org/2000/svg">
<rect width="1440" height="600" fill="#ECF3FF"/>
<path d="M1044.69 477.55C1046.09 478.271 1047.49 478.848 1048.91 479.227C1053.24 480.386 1059.53 479.227 1064.01 479.227H1300.47C1332.68 479.227 1360.13 448.549 1371.1 418.262C1375.55 405.99 1377.35 392.928 1378.61 379.934C1380.8 357.39 1381.36 334.115 1374.14 312.646C1364.56 284.169 1342.52 261.897 1333.36 233.489C1324.99 207.511 1324.14 177.991 1307.15 155.468C1290 132.744 1260 123.56 1231.59 121.735C1190.37 119.084 1142.16 117.65 1102.81 131.475C1082.34 138.667 1063.23 152.592 1054.82 172.59C1048.93 186.574 1048.71 202.17 1046.37 217.158C1041.36 249.254 1026.53 278.815 1013.96 308.771C999.455 343.336 987.995 381.45 997.314 418.973C1003.52 443.942 1021.93 465.784 1044.69 477.552V477.55Z" fill="#DDE7FE"/>
<path d="M1252.15 407C1252.11 407 1252.08 406.996 1252.04 406.988C1251.74 406.924 1251.55 406.635 1251.62 406.338C1267.92 328.826 1284.06 273.711 1297.06 251.142C1297.35 250.641 1297.56 250.278 1297.64 250.099C1297.75 249.82 1298.08 249.689 1298.36 249.806C1298.63 249.924 1298.77 250.246 1298.65 250.525C1298.55 250.769 1298.35 251.116 1298.02 251.692C1285.07 274.164 1268.97 329.165 1252.69 406.564C1252.64 406.825 1252.41 407.002 1252.15 407H1252.15Z" fill="#BDD1F9"/>
<path d="M1307.07 246.377C1305.51 248.917 1297.05 254.057 1296.33 253.615C1295.6 253.173 1296.31 243.298 1297.86 240.758C1299.41 238.217 1302.73 237.415 1305.27 238.967C1307.81 240.519 1308.62 243.836 1307.06 246.377H1307.07Z" fill="#BDD1F9"/>
<path d="M1290.63 255.099C1291.75 257.93 1290.74 268.009 1289.93 268.329C1289.12 268.649 1281.49 261.987 1280.37 259.155C1279.25 256.323 1280.64 253.118 1283.47 251.998C1286.3 250.877 1289.51 252.267 1290.63 255.099Z" fill="#BDD1F9"/>
<path d="M1302.63 271.552C1299.62 272.006 1290.03 268.75 1289.9 267.891C1289.77 267.031 1297.98 261.096 1300.99 260.644C1304 260.19 1306.81 262.264 1307.27 265.277C1307.72 268.288 1305.65 271.097 1302.63 271.552Z" fill="#BDD1F9"/>
<path d="M1268.93 307.396C1271.31 311.921 1271.45 328.92 1270.16 329.601C1268.87 330.281 1254.93 320.545 1252.55 316.022C1250.17 311.497 1251.9 305.901 1256.43 303.519C1260.95 301.137 1266.55 302.875 1268.93 307.398L1268.93 307.396Z" fill="#BDD1F9"/>
<path d="M1291.94 332.683C1287 333.985 1270.41 330.289 1270.04 328.879C1269.66 327.467 1282.29 316.081 1287.23 314.779C1292.18 313.477 1297.24 316.431 1298.54 321.374C1299.84 326.318 1296.89 331.381 1291.95 332.683H1291.94Z" fill="#BDD1F9"/>
<path d="M1257.29 327.423C1261.35 332.182 1266.1 352.439 1264.74 353.598C1263.38 354.757 1244.12 346.889 1240.06 342.13C1236 337.371 1236.56 330.22 1241.32 326.159C1246.08 322.099 1253.23 322.663 1257.29 327.423Z" fill="#BDD1F9"/>
<path d="M1289.93 360.302C1283.74 361.264 1264.01 354.677 1263.74 352.913C1263.46 351.149 1280.26 338.878 1286.44 337.917C1292.62 336.955 1298.42 341.186 1299.38 347.368C1300.34 353.549 1296.11 359.341 1289.93 360.302H1289.93Z" fill="#BDD1F9"/>
<path d="M1251.19 352.764C1255.25 357.523 1260 377.78 1258.64 378.939C1257.28 380.099 1238.02 372.231 1233.96 367.472C1229.9 362.712 1230.46 355.561 1235.22 351.501C1239.98 347.439 1247.13 348.005 1251.19 352.764H1251.19Z" fill="#BDD1F9"/>
<path d="M1283.82 385.645C1277.64 386.606 1257.91 380.02 1257.63 378.255C1257.36 376.491 1274.16 364.22 1280.34 363.259C1286.52 362.297 1292.32 366.529 1293.28 372.71C1294.24 378.891 1290.01 384.683 1283.83 385.645H1283.82Z" fill="#BDD1F9"/>
<path d="M1235.86 385.262C1241.42 388.114 1253.52 405.038 1252.71 406.627C1251.9 408.216 1231.09 408.277 1225.52 405.425C1219.96 402.573 1217.76 395.746 1220.61 390.178C1223.46 384.61 1230.29 382.409 1235.86 385.262Z" fill="#BDD1F9"/>
<path d="M1278.64 410.638C1272.63 412.366 1252.23 408.298 1251.74 406.582C1251.24 404.867 1266.38 390.591 1272.39 388.864C1278.4 387.136 1284.68 390.612 1286.4 396.624C1288.13 402.638 1284.66 408.913 1278.64 410.638Z" fill="#BDD1F9"/>
<path d="M1283.95 271.374C1285.08 274.253 1284.06 284.49 1283.24 284.816C1282.42 285.14 1274.66 278.372 1273.53 275.496C1272.39 272.619 1273.8 269.363 1276.67 268.224C1279.55 267.086 1282.81 268.497 1283.95 271.374H1283.95Z" fill="#BDD1F9"/>
<path d="M1295.76 288.314C1292.7 288.775 1282.96 285.468 1282.83 284.596C1282.7 283.722 1291.04 277.694 1294.1 277.234C1297.16 276.773 1300.01 278.88 1300.47 281.94C1300.93 285 1298.82 287.854 1295.76 288.314Z" fill="#BDD1F9"/>
<path d="M1276.04 286.636C1277.99 290.578 1277.73 305.196 1276.6 305.752C1275.48 306.308 1263.71 297.629 1261.77 293.687C1259.82 289.745 1261.44 284.971 1265.38 283.024C1269.32 281.078 1274.1 282.696 1276.04 286.636Z" fill="#BDD1F9"/>
<path d="M1294.81 310.552C1290.47 311.206 1276.62 306.51 1276.43 305.269C1276.25 304.028 1288.1 295.463 1292.44 294.807C1296.79 294.153 1300.85 297.146 1301.5 301.494C1302.16 305.841 1299.16 309.896 1294.82 310.552H1294.81Z" fill="#BDD1F9"/>
<path d="M1139.48 446.569C1139.48 446.569 1188.25 360.613 1028.16 302.222C1028.16 302.222 1033.67 477.652 1139.48 446.569Z" fill="#91B5F8"/>
<path d="M1028.16 302.222L1139.47 446.569C1139.47 446.569 1043.25 491.679 1028.16 302.222Z" fill="#7C9AF2"/>
<path d="M1046.13 354.057C1046.15 354.072 1046.17 354.084 1046.19 354.094L1083.88 372.78C1084.16 372.923 1084.51 372.805 1084.65 372.519C1084.79 372.234 1084.67 371.89 1084.39 371.747L1046.7 353.061C1046.42 352.918 1046.07 353.037 1045.93 353.322C1045.8 353.585 1045.89 353.898 1046.13 354.057Z" fill="#91B5F8"/>
<path d="M1075.15 412.006C1075.19 412.03 1075.23 412.051 1075.27 412.065L1127.37 431.668C1127.66 431.78 1128 431.629 1128.11 431.332C1128.22 431.034 1128.07 430.702 1127.77 430.588L1075.67 410.985C1075.38 410.873 1075.04 411.024 1074.93 411.321C1074.84 411.578 1074.93 411.859 1075.15 412.004V412.006Z" fill="#91B5F8"/>
<path d="M1213.67 463.59C1213.67 463.59 1187.58 364.95 1353.31 346.922C1353.31 346.922 1306.81 521.606 1213.67 463.59Z" fill="#6D8AD1"/>
<path d="M1353.57 346.7L1212.46 450.749C1211.79 423.553 1224.62 360.727 1353.57 346.7Z" fill="#91B5F8"/>
<path d="M1218.41 446.831C1218.27 446.831 1218.12 446.764 1218.03 446.638C1217.87 446.426 1217.92 446.128 1218.13 445.973L1353.29 346.319C1353.5 346.162 1353.79 346.207 1353.95 346.419C1354.1 346.63 1354.06 346.928 1353.85 347.083L1218.7 446.737C1218.61 446.801 1218.51 446.831 1218.41 446.831Z" fill="#060633"/>
<path d="M1328.52 405.392C1328.5 405.392 1328.48 405.392 1328.45 405.388L1282.95 399.197C1282.69 399.162 1282.51 398.922 1282.54 398.663C1282.57 398.402 1282.82 398.217 1283.07 398.256L1328.58 404.447C1328.84 404.482 1329.02 404.722 1328.99 404.981C1328.95 405.219 1328.75 405.392 1328.52 405.392H1328.52Z" fill="#060633"/>
<path d="M1254.06 420.548C1253.99 420.548 1253.92 420.533 1253.86 420.503C1253.62 420.393 1253.52 420.11 1253.63 419.871L1273.51 377.224C1273.63 376.984 1273.91 376.882 1274.14 376.994C1274.38 377.104 1274.49 377.387 1274.37 377.626L1254.49 420.273C1254.41 420.446 1254.24 420.548 1254.06 420.548H1254.06Z" fill="#060633"/>
<path d="M1142.06 464.223C1142.06 464.223 1069.34 531.387 975.902 388.556C975.902 388.556 1148.26 353.944 1142.06 464.223Z" fill="#4851EC"/>
<path d="M975.588 388.417L1131.56 470.979C1108.44 483.553 1048.29 499.548 975.588 388.417Z" fill="#91B5F8"/>
<path d="M1124.98 467.969C1124.9 467.969 1124.83 467.951 1124.76 467.914L975.366 388.839C975.133 388.714 975.046 388.427 975.168 388.195C975.29 387.965 975.578 387.875 975.81 387.997L1125.2 467.073C1125.43 467.197 1125.52 467.485 1125.4 467.717C1125.31 467.878 1125.15 467.969 1124.98 467.969Z" fill="#060633"/>
<path d="M1053.58 430.173C1053.38 430.173 1053.2 430.053 1053.13 429.86L1037.07 385.736C1036.98 385.489 1037.11 385.216 1037.35 385.126C1037.6 385.037 1037.87 385.163 1037.96 385.41L1054.02 429.534C1054.11 429.78 1053.98 430.053 1053.74 430.143C1053.68 430.163 1053.63 430.171 1053.57 430.171L1053.58 430.173Z" fill="#060633"/>
<path d="M1039.49 447.803C1039.23 447.803 1039.02 447.595 1039.02 447.334C1039.01 447.071 1039.22 446.855 1039.48 446.851L1085.57 446.163H1085.58C1085.84 446.163 1086.05 446.37 1086.05 446.631C1086.06 446.894 1085.85 447.11 1085.58 447.114L1039.5 447.803H1039.49Z" fill="#060633"/>
<path d="M1216.89 380.431C1216.89 380.431 1231.05 397.583 1237.43 417.657C1243.82 437.73 1239.7 479.204 1239.7 479.204H1192.25C1192.25 479.204 1191.79 440.88 1189.97 440.424C1188.14 439.967 1177.65 479.204 1177.65 479.204H1127.47C1127.47 479.204 1114.92 416.701 1150.39 380.429L1183.58 382.483L1216.89 380.429V380.431Z" fill="#131375"/>
<path d="M1216.89 371.535V380.431C1216.89 380.431 1200 396.856 1150.39 380.431L1150.28 371.535L1193.85 368.796L1216.89 371.535Z" fill="#060633"/>
<path d="M1198.05 166.268C1205.66 166.262 1213.82 170.658 1215.69 178.178C1216.32 180.704 1216.24 183.479 1217.54 185.722C1220.15 190.257 1227.13 190.64 1229.51 195.31C1231.94 200.083 1227.99 205.971 1229.17 211.217C1229.95 214.674 1232.8 217.205 1234.3 220.399C1236.59 225.279 1235.41 231.354 1232.33 235.793C1229.25 240.232 1224.54 243.237 1219.65 245.391C1217.35 246.401 1214.74 247.493 1213.82 249.865C1213.5 250.684 1213.43 251.576 1213.21 252.428C1211.97 257.236 1206.39 259.638 1201.54 259.287C1196.69 258.935 1192.23 256.625 1187.59 255.184C1171.27 250.13 1152.52 255.783 1137.19 248.19C1135.5 247.349 1133.7 246.108 1133.42 244.199C1133.03 241.443 1135.94 239.419 1136.89 236.804C1138.63 232.069 1133.78 227.811 1131.75 223.221C1129.71 218.596 1130.82 212.704 1134.39 209.141C1136.81 206.733 1140.21 205.307 1141.98 202.371C1143.7 199.511 1143.45 195.921 1144.02 192.621C1145.13 186.221 1149.52 180.68 1155.03 177.402C1161.37 173.631 1168.33 173.539 1175.29 172.154C1183.05 170.612 1189.96 166.272 1198.04 166.268H1198.05Z" fill="#0B0755"/>
<path d="M1200.02 264.231C1200.02 264.231 1217.6 263.58 1226.52 269.738C1232.91 274.145 1247 298.994 1247 298.994L1230.82 312.744C1230.82 312.744 1234.68 327.736 1219.61 335.262L1216.89 371.534C1216.89 371.534 1188.6 387.959 1150.28 371.534C1150.28 371.534 1142.98 303.556 1136.13 309.488C1129.29 315.419 1127.49 267.442 1136.7 263.066C1158.33 252.8 1175.81 262.677 1175.81 262.677L1200.02 264.231H1200.02Z" fill="#4851EC"/>
<path d="M1213.36 220.807C1213.36 220.807 1215.92 217.684 1217.53 219.224C1221.65 223.15 1216.35 227.269 1213.27 227.96L1213.36 220.805V220.807Z" fill="#EA6868"/>
<path d="M1189.35 177.319C1175.59 176.824 1163.43 186.89 1161.31 200.503C1160.62 204.979 1161.05 209.339 1162.37 213.326C1165.16 223.213 1167.5 231.185 1170.8 237.152C1174.15 243.201 1175.25 250.238 1173.59 256.951L1172.56 261.111C1180.64 274.07 1194.4 269.327 1194.4 269.327L1196.35 250.163C1213.73 249.857 1214.66 217.926 1215.61 208.559H1215.58C1215.63 208.21 1215.68 207.862 1215.72 207.508C1217.31 191.828 1205.36 177.895 1189.36 177.319H1189.35Z" fill="#FB9391"/>
<path d="M1184.4 204.706C1179.03 209.891 1173.36 214.935 1169.12 221.059C1168.65 221.732 1165.3 226.811 1166.05 227.51C1161.96 223.694 1159.63 218.384 1157.75 213.12C1154.49 203.995 1156.76 193.658 1162.64 186.116C1168.46 178.657 1177.28 175.371 1186.61 175.556C1196.6 175.756 1207.09 180.181 1212.31 189.074C1217.21 197.421 1216.47 207.271 1216.19 216.551C1216.51 206.134 1203.38 197.007 1195.42 192.509C1195.65 192.639 1188.31 200.817 1187.93 201.214C1186.78 202.396 1185.6 203.555 1184.4 204.71V204.706Z" fill="#0B0755"/>
<path d="M1169.92 221.821C1169.56 220.895 1168.86 220.143 1167.99 219.68C1166.18 218.729 1162.94 217.561 1160.42 219.615C1156.73 222.628 1162.57 232.2 1169.69 228.459C1169.69 228.459 1171.78 226.748 1169.92 221.821Z" fill="#FB9391"/>
<path d="M1178.46 215.703C1178.17 215.697 1177.89 215.569 1177.7 215.33C1177.35 214.901 1177.43 214.275 1177.85 213.931C1177.98 213.827 1181.08 211.421 1185.52 211.706C1186.07 211.741 1186.49 212.213 1186.45 212.761C1186.42 213.309 1185.9 213.733 1185.4 213.692C1181.7 213.458 1179.12 215.465 1179.1 215.485C1178.91 215.636 1178.68 215.707 1178.45 215.703H1178.46Z" fill="#0B0755"/>
<path d="M1203.51 212.242C1203.27 212.083 1203.1 211.824 1203.07 211.519C1203.01 210.971 1203.41 210.482 1203.96 210.423C1204.12 210.406 1207.99 210.019 1211.62 212.676C1212.06 213.002 1212.16 213.623 1211.83 214.067C1211.51 214.512 1210.87 214.601 1210.44 214.283C1207.44 212.085 1204.2 212.399 1204.17 212.403C1203.92 212.427 1203.69 212.366 1203.51 212.242H1203.51Z" fill="#0B0755"/>
<path d="M1195.88 231.01C1198.74 230.867 1199.89 228.846 1200.1 227.636C1200.14 227.424 1200.09 227.206 1199.97 227.027C1197.76 223.69 1198.47 219.204 1198.48 219.159C1198.56 218.702 1198.25 218.271 1197.79 218.193C1197.34 218.116 1196.91 218.421 1196.83 218.878C1196.79 219.081 1196.03 223.781 1198.36 227.628C1198.13 228.27 1197.31 229.671 1194.64 229.268C1194.18 229.201 1193.76 229.514 1193.69 229.971C1193.62 230.427 1193.94 230.857 1194.39 230.926C1194.93 231.008 1195.43 231.032 1195.88 231.01H1195.88Z" fill="#EA6868"/>
<path d="M1202.85 235.109C1202.85 235.109 1200.72 233.469 1199.42 233.797C1198.11 234.125 1197.35 235.679 1197.35 235.679C1197.35 235.679 1196.61 234.092 1195.03 234.029C1193.45 233.968 1188.98 235.076 1188.98 235.076C1188.98 235.076 1192.92 241.915 1197.68 240.85C1202.44 239.786 1202.77 235.335 1202.77 235.335L1202.85 235.109Z" fill="#EA6868"/>
<path d="M1198.35 237.755C1192.89 238.773 1187.71 234.644 1187.65 234.589C1187.49 234.465 1187.47 234.238 1187.6 234.084C1187.72 233.931 1187.95 233.906 1188.1 234.031C1188.44 234.308 1196.52 240.737 1202.82 234.568C1202.96 234.43 1203.19 234.432 1203.33 234.575C1203.47 234.715 1203.46 234.943 1203.32 235.082C1201.73 236.638 1200.03 237.439 1198.35 237.753L1198.35 237.755Z" fill="#240D39"/>
<path d="M1173.31 330.265C1160.48 330.265 1155.13 317.438 1155.08 317.307C1154.98 317.065 1155.1 316.788 1155.34 316.69C1155.59 316.588 1155.86 316.709 1155.96 316.951C1156.01 317.075 1161.13 329.315 1173.31 329.315C1185.5 329.315 1190.25 320.425 1190.3 320.335C1190.42 320.101 1190.71 320.009 1190.94 320.129C1191.17 320.249 1191.26 320.537 1191.14 320.769C1191.1 320.863 1186.12 330.265 1173.32 330.265H1173.31Z" fill="#7C9AF2"/>
<path d="M1230.82 313.219C1230.58 313.219 1230.38 313.042 1230.35 312.801C1230.34 312.716 1229.24 304.145 1222.6 297.909C1222.41 297.729 1222.41 297.428 1222.58 297.236C1222.77 297.045 1223.07 297.037 1223.26 297.216C1230.15 303.697 1231.25 312.325 1231.29 312.687C1231.32 312.948 1231.14 313.184 1230.88 313.215C1230.86 313.217 1230.84 313.219 1230.82 313.219Z" fill="#7C9AF2"/>
<path d="M1187.45 227.595C1187.31 229.064 1185.39 230.085 1183.17 229.873C1180.94 229.661 1179.24 228.298 1179.38 226.829C1179.52 225.36 1181.44 224.339 1183.67 224.551C1185.9 224.763 1187.59 226.126 1187.45 227.595Z" fill="#EF7D7D"/>
<path d="M1210.68 227.716C1210.54 229.185 1208.62 230.205 1206.39 229.993C1204.16 229.781 1202.47 228.418 1202.61 226.95C1202.75 225.481 1204.67 224.46 1206.9 224.672C1209.12 224.884 1210.82 226.247 1210.68 227.716H1210.68Z" fill="#EF7D7D"/>
<path d="M1193.47 391.415C1188.86 391.415 1185.1 387.66 1185.1 383.046C1185.1 378.431 1188.86 374.676 1193.47 374.676C1198.09 374.676 1201.84 378.431 1201.84 383.046C1201.84 387.66 1198.09 391.415 1193.47 391.415ZM1193.47 378.478C1190.95 378.478 1188.9 380.527 1188.9 383.046C1188.9 385.564 1190.95 387.613 1193.47 387.613C1195.99 387.613 1198.04 385.564 1198.04 383.046C1198.04 380.527 1195.99 378.478 1193.47 378.478Z" fill="#BDD1F9"/>
<path d="M1204.78 221.448C1203.83 221.212 1202.85 220.593 1201.86 219.593C1201.68 219.415 1201.68 219.13 1201.86 218.955C1202.04 218.78 1202.32 218.782 1202.5 218.955C1203.75 220.22 1204.93 220.786 1206 220.627C1207.45 220.42 1208.27 218.934 1208.28 218.918C1208.4 218.7 1208.67 218.619 1208.89 218.737C1209.11 218.855 1209.19 219.126 1209.07 219.346C1209.03 219.423 1208.04 221.241 1206.14 221.52C1205.69 221.585 1205.24 221.561 1204.78 221.446V221.448Z" fill="#060633"/>
<path d="M1183.59 221.701C1182.63 221.465 1181.66 220.845 1180.66 219.845C1180.49 219.668 1180.49 219.383 1180.66 219.207C1180.84 219.032 1181.13 219.034 1181.3 219.207C1182.56 220.473 1183.74 221.035 1184.8 220.882C1186.25 220.674 1187.07 219.187 1187.08 219.173C1187.2 218.955 1187.47 218.873 1187.69 218.989C1187.91 219.108 1187.99 219.378 1187.87 219.599C1187.83 219.676 1186.84 221.495 1184.94 221.772C1184.49 221.838 1184.04 221.813 1183.58 221.699L1183.59 221.701Z" fill="#060633"/>
<path d="M1241 303.477C1241 303.477 1246.29 361.25 1222.93 362.261C1199.56 363.269 1166.67 312.746 1166.67 312.746L1179.53 308.126L1219.07 335.326C1219.07 335.326 1233.78 330.365 1231.1 312.746L1241 303.477Z" fill="#E58383"/>
<path d="M1145.74 292.848C1145.74 292.848 1154.39 335.511 1173.52 335.311C1192.65 335.109 1219.5 312.76 1219.5 312.76L1230.19 322.232C1230.19 322.232 1190.21 365.569 1167 360.875C1132.64 353.926 1123.41 299.662 1123.41 299.662L1145.74 292.848H1145.74Z" fill="#FB9391"/>
<path d="M1136.7 263.066C1123.83 270.425 1119.34 289.588 1123.41 311.031L1152.12 304.601L1148.24 279.269L1136.7 263.066H1136.7Z" fill="#4851EC"/>
<path d="M1218.06 318.377C1218.06 318.377 1221.19 305.845 1222.55 301.897C1223.9 297.949 1222.29 293.112 1224.71 293.084C1227.13 293.055 1227.73 301.068 1227.73 301.068C1227.73 301.068 1233.85 295.174 1235.46 293.076C1237.06 290.977 1240.89 287.958 1242.51 289.013C1244.14 290.069 1235.72 299.603 1235.72 299.603C1235.72 299.603 1243.6 292.271 1245.3 292.923C1247.01 293.577 1238.37 304.379 1238.37 304.379C1238.37 304.379 1246.38 296.146 1247.57 296.05C1248.77 295.954 1248.94 297.474 1246.81 301.078C1244.67 304.682 1241.57 307.814 1241.57 307.814C1241.57 307.814 1247.64 302.451 1248.59 302.062C1249.54 301.673 1251.14 301.832 1247.42 306.836C1243.7 311.839 1233.75 321.439 1226.92 324.2L1218.06 318.377Z" fill="#FB9391"/>
<path d="M1180.73 314.056C1180.73 314.056 1181.04 301.144 1180.78 296.976C1180.52 292.807 1183.36 288.574 1181.03 287.905C1178.7 287.235 1176 294.802 1176 294.802C1176 294.802 1171.66 287.496 1170.67 285.047C1169.68 282.598 1166.79 278.672 1164.95 279.259C1163.1 279.844 1168.68 291.271 1168.68 291.271C1168.68 291.271 1163.04 282.113 1161.22 282.289C1159.4 282.466 1164.87 295.175 1164.87 295.175C1164.87 295.175 1159.32 285.11 1158.2 284.701C1157.07 284.291 1156.51 285.713 1157.6 289.753C1158.7 293.793 1160.87 297.636 1160.87 297.636C1160.87 297.636 1156.44 290.856 1155.62 290.228C1154.81 289.601 1153.23 289.33 1155.49 295.142C1157.75 300.954 1164.79 312.846 1170.64 317.32L1180.73 314.058L1180.73 314.056Z" fill="#E58383"/>
<path d="M1281.69 157.435C1274.99 137.616 1252.4 151.262 1252.4 151.262C1252.4 151.262 1243.05 126.576 1225.54 138.027C1208.03 149.479 1237.81 193.46 1237.81 193.46C1237.81 193.46 1288.4 177.253 1281.69 157.435H1281.69Z" fill="#FA7267"/>
<path d="M1280.22 231.698C1279.03 224.531 1270.52 227.945 1270.52 227.945C1270.52 227.945 1268.69 218.963 1262.06 221.911C1255.42 224.857 1263.17 241.593 1263.17 241.593C1263.17 241.593 1281.41 238.863 1280.22 231.698Z" fill="#FA7267"/>
<path d="M1105.42 165.357C1092.26 159.653 1088.81 177.422 1088.81 177.422C1088.81 177.422 1071.95 170.826 1069.72 184.999C1067.5 199.173 1103.57 204.248 1103.57 204.248C1103.57 204.248 1118.58 171.062 1105.42 165.357Z" fill="#FA7267"/>
</svg>
